# Blender v2.90.0 OBJ File: 'crosshair.blend'
# www.blender.org
v 0.000000 -0.418268 -0.998845
v 0.000000 -0.418269 -0.708363
v 0.045037 -0.436923 -0.998845
v 0.045037 -0.436923 -0.708363
v 0.063692 -0.481960 -0.998845
v 0.063692 -0.481961 -0.708363
v 0.045037 -0.526997 -0.998845
v 0.045037 -0.526998 -0.708363
v -0.000000 -0.545652 -0.998845
v -0.000000 -0.545652 -0.708363
v -0.045037 -0.526997 -0.998845
v -0.045037 -0.526998 -0.708363
v -0.063692 -0.481960 -0.998845
v -0.063692 -0.481960 -0.708363
v -0.045037 -0.436923 -0.998845
v -0.045037 -0.436923 -0.708363
v -0.000000 -0.481960 -0.708363
v 0.000000 -0.481960 -0.998845
v 0.000349 -0.145276 -0.870951
v 0.000349 -0.545705 -0.870951
v 0.045386 -0.145276 -0.889606
v 0.045386 -0.545705 -0.889606
v 0.064041 -0.145276 -0.934643
v 0.064041 -0.545705 -0.934643
v 0.045386 -0.145276 -0.979680
v 0.045386 -0.545705 -0.979680
v 0.000349 -0.145276 -0.998335
v 0.000349 -0.545705 -0.998335
v -0.044688 -0.145276 -0.979680
v -0.044688 -0.545705 -0.979680
v -0.063343 -0.145276 -0.934643
v -0.063343 -0.545705 -0.934643
v -0.044688 -0.145276 -0.889606
v -0.044688 -0.545705 -0.889606
v 0.000349 -0.545705 -0.934643
v 0.000349 -0.145276 -0.934643
v 0.045386 -0.526155 -0.889606
v 0.045037 -0.526997 -0.889461
v 0.045037 -0.526997 -0.979824
v 0.045386 -0.526155 -0.979680
v 0.063692 -0.481960 -0.935485
v 0.063692 -0.481960 -0.933800
v 0.045386 -0.437766 -0.979680
v 0.045386 -0.437766 -0.889606
v 0.045037 -0.436923 -0.889461
v 0.045037 -0.436923 -0.979824
v -0.045037 -0.436923 -0.890448
v -0.045037 -0.436923 -0.978837
v -0.063343 -0.481118 -0.934643
v -0.044688 -0.436779 -0.889606
v -0.044688 -0.436779 -0.979680
v -0.000000 -0.418268 -0.871095
v 0.000000 -0.418268 -0.998190
v -0.045037 -0.526997 -0.890448
v -0.044688 -0.527142 -0.889606
v -0.044688 -0.527142 -0.979680
v -0.045037 -0.526997 -0.978837
v -0.000000 -0.545652 -0.871095
v -0.000000 -0.545652 -0.998190
v 0.000349 -0.418413 -0.870951
v 0.000349 -0.418413 -0.998335
v 0.000349 -0.545508 -0.998335
v -0.063343 -0.482803 -0.934643
v 0.000349 -0.545508 -0.870951
v 0.061218 0.147185 -0.901567
v -0.058968 0.147659 -0.911621
v -0.144611 0.062803 -0.914865
v -0.145544 -0.057677 -0.909401
v -0.061218 -0.143204 -0.898429
v 0.058968 -0.143678 -0.888375
v 0.144611 -0.058821 -0.885131
v 0.145544 0.061658 -0.890595
v 0.051591 0.124351 -0.901321
v -0.049694 0.124751 -0.909793
v -0.121869 0.053239 -0.912527
v -0.122655 -0.048293 -0.907922
v -0.051591 -0.120370 -0.898675
v 0.049694 -0.120769 -0.890203
v 0.121869 -0.049258 -0.887469
v 0.122655 0.052275 -0.892074
v 0.061218 0.147185 -0.980528
v -0.058968 0.147659 -0.990581
v -0.144611 0.062803 -0.993826
v -0.145544 -0.057677 -0.988361
v -0.061218 -0.143204 -0.977389
v 0.058968 -0.143678 -0.967336
v 0.144611 -0.058821 -0.964091
v 0.145544 0.061658 -0.969555
v 0.051591 0.124351 -0.980281
v -0.049694 0.124751 -0.988753
v -0.121869 0.053239 -0.991488
v -0.122655 -0.048293 -0.986883
v -0.051591 -0.120370 -0.977636
v 0.049694 -0.120769 -0.969164
v 0.121869 -0.049258 -0.966429
v 0.122655 0.052275 -0.971034
vt 1.000000 0.500000
vt 0.999031 0.500172
vt 0.875000 0.500000
vt 0.872662 0.506453
vt 0.750000 0.521333
vt 0.750000 0.500000
vt 0.627338 0.506453
vt 0.625000 0.506404
vt 0.625000 0.500000
vt 0.500969 0.500172
vt 0.500000 0.500220
vt 0.500000 0.500000
vt 0.375969 0.506453
vt 0.375000 0.500000
vt 0.252338 0.521617
vt 0.250000 1.000000
vt 0.250000 0.500000
vt 0.250000 0.250000
vt 0.080294 0.080294
vt 0.250000 0.010000
vt 0.247662 0.521617
vt 0.000000 0.500220
vt 0.000000 0.500000
vt 0.125000 0.500000
vt 0.750000 0.250000
vt 0.919706 0.080294
vt 0.750000 0.010000
vt 0.419706 0.080294
vt 0.490000 0.250000
vt 0.080294 0.419706
vt 0.250000 0.490000
vt 0.419706 0.419706
vt 0.919706 0.419706
vt 0.750000 0.490000
vt 0.580294 0.080294
vt 0.510000 0.250000
vt 0.580294 0.419706
vt 1.000000 0.841055
vt 0.875969 0.864168
vt 0.875000 0.500000
vt 0.752338 0.920404
vt 0.750000 1.000000
vt 0.750000 0.500000
vt 0.747662 0.920404
vt 0.624031 0.864169
vt 0.500000 0.841055
vt 0.625000 0.500000
vt 0.499031 0.840875
vt 0.375000 0.863988
vt 0.375000 0.500000
vt 0.372662 0.864168
vt 0.250000 0.919352
vt 0.250000 0.500000
vt 0.250000 0.250000
vt 0.080294 0.080294
vt 0.250000 0.010000
vt 0.127338 0.864168
vt 0.125000 0.863988
vt 0.125000 0.500000
vt 0.000969 0.840875
vt 0.000000 0.841055
vt 0.000000 0.500000
vt 0.750000 0.250000
vt 0.919706 0.080294
vt 0.750000 0.010000
vt 0.419706 0.080294
vt 0.490000 0.250000
vt 0.080294 0.419706
vt 0.250000 0.490000
vt 0.419706 0.419706
vt 0.919706 0.419706
vt 0.750000 0.490000
vt 0.580294 0.080294
vt 0.510000 0.250000
vt 0.580294 0.419706
vt 0.627338 0.536781
vt 0.750000 0.521901
vt 0.750000 1.000000
vt 0.500969 0.543063
vt 0.625000 1.000000
vt 0.500000 1.000000
vt 0.499031 0.999934
vt 0.500000 1.000000
vt 0.375000 1.000000
vt 0.000969 0.999934
vt 0.125000 1.000000
vt 0.000000 1.000000
vt 0.124031 0.536781
vt 0.125000 0.536498
vt 0.125000 1.000000
vt 0.624031 0.976640
vt 0.625000 0.975588
vt 0.625000 1.000000
vt 0.999031 0.543063
vt 1.000000 1.000000
vt 0.875000 1.000000
vt 0.372662 0.976640
vt 0.250000 1.000000
vt 1.000000 0.999753
vt 1.000000 1.000000
vt 0.875000 1.000000
vt 0.875000 0.536830
vt 0.500000 0.543014
vt 0.375000 1.000000
vt 0.127338 0.976640
vt 0.000000 0.000000
vt 0.000000 0.000000
vt 0.000000 0.000000
vt 0.000000 0.000000
vt 0.000000 0.000000
vt 0.000000 0.000000
vt 0.000000 0.000000
vt 0.000000 0.000000
vt 0.000000 0.000000
vt 0.000000 0.000000
vt 0.000000 0.000000
vt 0.000000 0.000000
vt 0.000000 0.000000
vt 0.000000 0.000000
vt 0.000000 0.000000
vt 0.000000 0.000000
vt 0.000000 0.000000
vt 0.000000 0.000000
vt 0.000000 0.000000
vt 0.000000 0.000000
vt 0.000000 0.000000
vt 0.000000 0.000000
vt 0.000000 0.000000
vt 0.000000 0.000000
vt 0.000000 0.000000
vt 0.000000 0.000000
vt 0.000000 0.000000
vt 0.000000 0.000000
vt 0.000000 0.000000
vt 0.000000 0.000000
vt 0.000000 0.000000
vt 0.000000 0.000000
vt 1.000000 0.500220
vt 0.875000 0.506404
vt 0.375000 0.506737
vt 0.375000 0.536498
vt 0.010000 0.250000
vt 0.125000 0.506737
vt 0.124031 0.506453
vt 0.990000 0.250000
vt 1.000000 0.500000
vt 0.875000 0.865220
vt 0.875000 0.975588
vt 0.625000 0.865220
vt 0.500000 0.500000
vt 0.010000 0.250000
vt 0.990000 0.250000
vt 0.625000 0.536830
vt 0.375000 0.976821
vt 0.500000 0.999754
vt 0.000000 0.999753
vt 0.125000 0.976821
vt 0.000000 1.000000
vt 0.000000 0.543014
vt 1.000000 0.543014
vt 0.250000 0.921456
vt 0.875969 0.976640
vt 0.872662 0.536781
vt 0.375969 0.536781
vn 0.3827 0.9239 -0.0001
vn 0.9239 0.3827 0.0000
vn 0.9239 -0.3827 0.0000
vn 0.3827 -0.9239 0.0000
vn -0.3827 -0.9239 0.0000
vn -0.9239 -0.3827 0.0000
vn 0.0000 0.0000 1.0000
vn -0.9239 0.3827 0.0000
vn -0.3827 0.9239 0.0000
vn 0.0000 0.0000 -1.0000
vn 0.3827 -0.0000 0.9239
vn 0.9239 -0.0000 0.3827
vn 0.9239 0.0000 -0.3827
vn 0.3827 0.0000 -0.9239
vn -0.3827 0.0000 -0.9239
vn -0.9239 0.0000 -0.3827
vn 0.0000 -1.0000 0.0000
vn -0.9239 -0.0000 0.3826
vn -0.3825 -0.0000 0.9240
vn 0.0000 1.0000 0.0000
vn -0.3829 0.0009 -0.9238
vn -0.3823 0.0008 0.9241
vn -0.3826 0.9239 0.0000
vn 0.3824 0.0000 -0.9240
vn 0.3827 0.9239 0.0000
vn 0.3826 0.0000 0.9239
vn -0.9239 -0.0000 0.3827
vn -0.0831 0.0458 0.9955
vn 0.0831 -0.0458 -0.9955
vn 0.7038 -0.7104 0.0000
vn -0.7038 0.7104 -0.0000
vn 1.0000 -0.0077 0.0000
vn -1.0000 0.0077 -0.0000
vn 0.7121 0.7021 0.0000
vn 0.0039 1.0000 0.0000
vn -0.7121 -0.7021 0.0000
vn -0.0039 -1.0000 -0.0000
vn 0.3826 0.9239 0.0000
vn 0.3826 -0.9239 0.0000
vn 0.3825 -0.0000 0.9239
vn 0.3823 0.0000 -0.9240
vn -0.3827 -0.0000 0.9239
vn 0.3828 -0.9238 -0.0000
vn -0.3824 0.0000 -0.9240
vn 0.3828 0.0000 -0.9238
vn 0.3830 0.0000 0.9238
s off
f 1/1/1 61/2/1 3/3/1
f 43/4/2 41/5/2 5/6/2
f 40/7/3 39/8/3 7/9/3
f 62/10/4 59/11/4 9/12/4
f 59/11/5 56/13/5 11/14/5
f 63/15/6 14/16/6 13/17/6
f 17/18/7 12/19/7 10/20/7
f 13/17/8 14/16/8 49/21/8
f 53/22/9 1/23/9 15/24/9
f 18/25/10 7/26/10 9/27/10
f 17/18/7 8/28/7 6/29/7
f 16/30/7 17/18/7 2/31/7
f 4/32/7 17/18/7 6/29/7
f 3/33/10 18/25/10 1/34/10
f 18/25/10 11/35/10 13/36/10
f 15/37/10 18/25/10 13/36/10
f 60/38/11 45/39/11 21/40/11
f 42/41/12 24/42/12 23/43/12
f 23/43/13 24/42/13 41/44/13
f 46/45/14 61/46/14 25/47/14
f 53/48/15 51/49/15 29/50/15
f 48/51/16 49/52/16 31/53/16
f 35/54/17 30/55/17 28/56/17
f 47/57/18 50/58/18 33/59/18
f 52/60/19 60/61/19 19/62/19
f 36/63/20 25/64/20 27/65/20
f 35/54/17 26/66/17 24/67/17
f 34/68/17 35/54/17 20/69/17
f 22/70/17 35/54/17 24/67/17
f 21/71/20 36/63/20 19/72/20
f 36/63/20 29/73/20 31/74/20
f 33/75/20 36/63/20 31/74/20
f 37/76/3 42/77/3 6/78/3
f 64/79/4 8/80/4 10/81/4
f 59/82/21 28/83/21 30/84/21
f 58/85/22 34/86/22 20/87/22
f 50/88/23 47/89/23 16/90/23
f 39/91/24 40/92/24 26/93/24
f 60/94/25 2/95/25 4/96/25
f 57/97/16 30/84/16 32/98/16
f 64/99/26 20/100/26 22/101/26
f 45/102/2 4/96/2 6/78/2
f 58/103/5 10/81/5 12/104/5
f 54/105/27 32/98/27 34/86/27
f 65/106/28 80/107/28 72/108/28
f 66/109/28 73/110/28 65/106/28
f 66/109/28 75/111/28 74/112/28
f 67/113/28 76/114/28 75/111/28
f 69/115/28 76/114/28 68/116/28
f 70/117/28 77/118/28 69/115/28
f 70/117/28 79/119/28 78/120/28
f 71/121/28 80/107/28 79/119/28
f 96/122/29 81/123/29 88/124/29
f 89/125/29 82/126/29 81/123/29
f 82/126/29 91/127/29 83/128/29
f 83/128/29 92/129/29 84/130/29
f 92/129/29 85/131/29 84/130/29
f 93/132/29 86/133/29 85/131/29
f 86/133/29 95/134/29 87/135/29
f 87/135/29 96/122/29 88/124/29
f 70/117/30 87/135/30 71/121/30
f 78/120/31 95/134/31 94/136/31
f 72/108/32 87/135/32 88/124/32
f 80/107/33 95/134/33 79/119/33
f 65/106/34 88/124/34 81/123/34
f 66/109/35 81/123/35 82/126/35
f 73/110/36 96/122/36 80/107/36
f 74/112/37 89/125/37 73/110/37
f 67/113/31 82/126/31 83/128/31
f 75/111/30 90/137/30 74/112/30
f 67/113/33 84/130/33 68/116/33
f 75/111/32 92/129/32 91/127/32
f 68/116/36 85/131/36 69/115/36
f 76/114/34 93/132/34 92/129/34
f 69/115/37 86/133/37 70/117/37
f 77/118/35 94/136/35 93/132/35
f 1/1/38 53/138/38 61/2/38
f 61/2/25 46/139/25 3/3/25
f 5/6/2 3/3/2 43/4/2
f 3/3/2 46/139/2 43/4/2
f 7/9/3 5/6/3 40/7/3
f 5/6/3 41/5/3 40/7/3
f 9/12/39 7/9/39 62/10/39
f 7/9/4 39/8/4 62/10/4
f 11/14/5 9/12/5 59/11/5
f 56/13/5 57/140/5 11/14/5
f 13/17/6 11/14/6 57/140/6
f 63/15/6 54/141/6 14/16/6
f 54/141/6 12/104/6 14/16/6
f 13/17/6 57/140/6 63/15/6
f 17/18/7 14/142/7 12/19/7
f 14/16/8 16/90/8 47/89/8
f 49/21/8 48/143/8 13/17/8
f 48/143/8 15/24/8 13/17/8
f 14/16/8 47/89/8 49/21/8
f 15/24/9 48/143/9 51/144/9
f 51/144/9 53/22/9 15/24/9
f 18/25/10 5/145/10 7/26/10
f 17/18/7 10/20/7 8/28/7
f 16/30/7 14/142/7 17/18/7
f 4/32/7 2/31/7 17/18/7
f 3/33/10 5/145/10 18/25/10
f 18/25/10 9/27/10 11/35/10
f 15/37/10 1/34/10 18/25/10
f 21/40/11 19/146/11 60/38/11
f 45/39/40 44/147/40 21/40/40
f 23/43/12 21/40/12 44/147/12
f 42/41/12 37/148/12 24/42/12
f 37/148/12 22/101/12 24/42/12
f 23/43/12 44/147/12 42/41/12
f 24/42/13 26/93/13 40/92/13
f 41/44/13 43/149/13 23/43/13
f 43/149/13 25/47/13 23/43/13
f 24/42/13 40/92/13 41/44/13
f 27/150/14 25/47/14 61/46/14
f 25/47/41 43/149/41 46/45/41
f 29/50/15 27/150/15 53/48/15
f 27/150/15 61/46/15 53/48/15
f 31/53/16 29/50/16 48/51/16
f 29/50/16 51/49/16 48/51/16
f 35/54/17 32/151/17 30/55/17
f 33/59/27 31/53/27 47/57/27
f 31/53/27 49/52/27 47/57/27
f 19/62/42 33/59/42 52/60/42
f 33/59/42 50/58/42 52/60/42
f 36/63/20 23/152/20 25/64/20
f 35/54/17 28/56/17 26/66/17
f 34/68/17 32/151/17 35/54/17
f 22/70/17 20/69/17 35/54/17
f 21/71/20 23/152/20 36/63/20
f 36/63/20 27/65/20 29/73/20
f 33/75/20 19/72/20 36/63/20
f 8/80/3 38/153/3 6/78/3
f 38/153/3 37/76/3 6/78/3
f 10/81/43 58/103/43 64/79/43
f 64/79/4 38/153/4 8/80/4
f 30/84/15 56/154/15 59/82/15
f 59/82/44 62/155/44 28/83/44
f 20/87/42 64/156/42 58/85/42
f 58/85/42 55/157/42 34/86/42
f 2/158/9 52/159/9 16/90/9
f 52/159/9 50/88/9 16/90/9
f 28/83/45 62/155/45 26/93/45
f 62/155/14 39/91/14 26/93/14
f 4/96/25 45/102/25 60/94/25
f 60/94/25 52/160/25 2/95/25
f 32/98/16 63/161/16 57/97/16
f 57/97/16 56/154/16 30/84/16
f 22/101/46 37/148/46 38/162/46
f 38/162/11 64/99/11 22/101/11
f 6/78/2 42/77/2 44/163/2
f 44/163/2 45/102/2 6/78/2
f 12/104/5 54/141/5 55/164/5
f 55/164/5 58/103/5 12/104/5
f 34/86/27 55/157/27 54/105/27
f 54/105/27 63/161/27 32/98/27
f 65/106/28 73/110/28 80/107/28
f 66/109/28 74/112/28 73/110/28
f 66/109/28 67/113/28 75/111/28
f 67/113/28 68/116/28 76/114/28
f 69/115/28 77/118/28 76/114/28
f 70/117/28 78/120/28 77/118/28
f 70/117/28 71/121/28 79/119/28
f 71/121/28 72/108/28 80/107/28
f 96/122/29 89/125/29 81/123/29
f 89/125/29 90/137/29 82/126/29
f 82/126/29 90/137/29 91/127/29
f 83/128/29 91/127/29 92/129/29
f 92/129/29 93/132/29 85/131/29
f 93/132/29 94/136/29 86/133/29
f 86/133/29 94/136/29 95/134/29
f 87/135/29 95/134/29 96/122/29
f 70/117/30 86/133/30 87/135/30
f 78/120/31 79/119/31 95/134/31
f 72/108/32 71/121/32 87/135/32
f 80/107/33 96/122/33 95/134/33
f 65/106/34 72/108/34 88/124/34
f 66/109/35 65/106/35 81/123/35
f 73/110/36 89/125/36 96/122/36
f 74/112/37 90/137/37 89/125/37
f 67/113/31 66/109/31 82/126/31
f 75/111/30 91/127/30 90/137/30
f 67/113/33 83/128/33 84/130/33
f 75/111/32 76/114/32 92/129/32
f 68/116/36 84/130/36 85/131/36
f 76/114/34 77/118/34 93/132/34
f 69/115/37 85/131/37 86/133/37
f 77/118/35 78/120/35 94/136/35
