# Blender v2.90.0 OBJ File: 'tractorbeam.blend'
# www.blender.org
v 0.542839 -0.000000 1.173786
v 0.383845 0.383845 1.173786
v -0.000000 0.542839 1.173786
v -0.383845 0.383845 1.173786
v -0.542839 0.000000 1.173786
v -0.383845 -0.383845 1.173786
v -0.000000 -0.542839 1.173786
v 0.383845 -0.383845 1.173786
v -0.059180 -0.059180 0.441774
v -0.000000 -0.083694 0.441774
v 0.059180 0.059181 0.441774
v 0.059180 -0.059180 0.441774
v 0.083694 0.000000 0.441774
v -0.000000 0.083694 0.441774
v -0.059180 0.059181 0.441774
v -0.083694 0.000000 0.441774
v -0.000000 0.000000 0.441774
vt 0.158971 0.866032
vt 0.448382 0.556434
vt 0.475216 0.572774
vt 0.333017 0.972010
vt 0.506338 0.577077
vt 0.534870 0.999919
vt 0.534870 0.000081
vt 0.506338 0.422924
vt 0.475217 0.427227
vt 0.333017 0.027991
vt 0.448382 0.443566
vt 0.158971 0.133968
vt 0.430274 0.469239
vt 0.041517 0.300485
vt 0.423885 0.500000
vt 0.000081 0.500000
vt 0.430274 0.530761
vt 0.041517 0.699516
vt 0.572955 0.038005
vt 0.557247 0.000081
vt 0.588664 0.000081
vt 0.610879 0.022296
vt 0.535031 0.053713
vt 0.535031 0.022296
vt 0.557247 0.075929
vt 0.588664 0.075929
vt 0.610879 0.053713
vn 0.7994 0.3311 -0.5014
vn 0.3311 0.7994 -0.5014
vn -0.3311 0.7994 -0.5014
vn -0.7994 0.3311 -0.5014
vn -0.7994 -0.3311 -0.5014
vn -0.3311 -0.7994 -0.5014
vn 0.3311 -0.7994 -0.5014
vn 0.7994 -0.3311 -0.5014
vn -0.0000 -0.0000 -1.0000
s off
f 1/1/1 13/2/1 11/3/1 2/4/1
f 2/4/2 11/3/2 14/5/2 3/6/2
f 3/7/3 14/8/3 15/9/3 4/10/3
f 4/10/4 15/9/4 16/11/4 5/12/4
f 5/12/5 16/11/5 9/13/5 6/14/5
f 6/14/6 9/13/6 10/15/6 7/16/6
f 7/16/7 10/15/7 12/17/7 8/18/7
f 8/18/8 12/17/8 13/2/8 1/1/8
f 17/19/9 14/20/9 11/21/9 13/22/9
f 16/23/9 15/24/9 14/20/9 17/19/9
f 9/25/9 16/23/9 17/19/9 10/26/9
f 10/26/9 17/19/9 13/22/9 12/27/9
