# Blender v2.90.0 OBJ File: 'turret.blend'
# www.blender.org
v -0.000446 2.251268 -0.438686
v -0.000446 2.692225 0.002270
v 0.118876 2.658659 -0.117051
v 0.220032 2.563071 -0.218208
v 0.287622 2.420015 -0.285798
v 0.311357 2.251268 -0.309533
v 0.287622 2.082521 -0.285798
v 0.220032 1.939465 -0.218208
v 0.118876 1.843878 -0.117051
v 0.168301 2.658659 0.002270
v 0.311357 2.563071 0.002270
v 0.406944 2.420015 0.002270
v 0.440510 2.251268 0.002270
v 0.406944 2.082521 0.002270
v 0.311357 1.939465 0.002270
v 0.168301 1.843878 0.002270
v -0.000446 1.810312 0.002270
v 0.118876 2.658659 0.121592
v 0.220032 2.563071 0.222748
v 0.287622 2.420015 0.290339
v 0.311357 2.251268 0.314073
v 0.287622 2.082521 0.290339
v 0.220032 1.939465 0.222748
v 0.118876 1.843878 0.121592
v -0.000446 2.658659 0.171017
v -0.000446 2.563071 0.314073
v -0.000446 2.420015 0.409661
v -0.000446 2.251268 0.443226
v -0.000446 2.082521 0.409661
v -0.000446 1.939465 0.314073
v -0.000446 1.843878 0.171017
v -0.119768 2.658659 0.121592
v -0.220924 2.563071 0.222748
v -0.288514 2.420015 0.290339
v -0.312249 2.251268 0.314073
v -0.288514 2.082521 0.290339
v -0.220924 1.939465 0.222748
v -0.119768 1.843878 0.121592
v -0.169193 2.658659 0.002270
v -0.312249 2.563071 0.002270
v -0.407836 2.420015 0.002270
v -0.441402 2.251268 0.002270
v -0.407836 2.082521 0.002270
v -0.312249 1.939465 0.002270
v -0.169193 1.843878 0.002270
v -0.119768 2.658659 -0.117051
v -0.220924 2.563071 -0.218208
v -0.288514 2.420015 -0.285798
v -0.312249 2.251268 -0.309533
v -0.288514 2.082521 -0.285798
v -0.220924 1.939465 -0.218208
v -0.119768 1.843878 -0.117051
v -0.000446 2.658659 -0.166476
v -0.000446 2.563071 -0.309533
v -0.000446 2.420015 -0.405120
v -0.000446 2.082521 -0.405120
v -0.000446 1.939465 -0.309533
v -0.000446 1.843878 -0.166476
v -0.000446 -0.005329 -0.959443
v 0.679588 -0.005329 -0.677764
v 0.961268 -0.005329 0.002271
v 0.679588 -0.005329 0.682305
v -0.000446 -0.005329 0.963984
v -0.680481 -0.005329 0.682305
v -0.962160 -0.005329 0.002270
v -0.680481 -0.005329 -0.677764
v -0.000446 1.918099 0.002270
v -0.000446 0.957724 -0.375499
v -0.000446 2.092619 -0.375499
v 0.266677 0.957724 -0.264853
v 0.266677 2.092619 -0.264853
v 0.377323 0.957724 0.002270
v 0.377323 2.092619 0.002270
v 0.266677 0.957724 0.269394
v 0.266677 2.092619 0.269394
v -0.000446 0.957724 0.380040
v -0.000446 2.092619 0.380040
v -0.267569 0.957724 0.269394
v -0.267569 2.092619 0.269394
v -0.378215 0.957724 0.002270
v -0.378215 2.092619 0.002270
v -0.267569 0.957724 -0.264853
v -0.267569 2.092619 -0.264853
v -0.001645 2.240699 -0.354681
v -0.001645 2.486089 -0.908940
v 0.137155 2.286458 -0.319874
v 0.236326 2.564542 -0.849264
v 0.194648 2.396930 -0.235842
v 0.334897 2.753946 -0.705193
v 0.137155 2.507403 -0.151810
v 0.236326 2.943349 -0.561122
v -0.001645 2.553162 -0.117003
v -0.001645 3.021803 -0.501446
v -0.140445 2.507402 -0.151810
v -0.239616 2.943349 -0.561122
v -0.197938 2.396930 -0.235842
v -0.338187 2.753946 -0.705193
v -0.140445 2.286458 -0.319874
v -0.239616 2.564542 -0.849264
v -0.000446 -0.005329 0.002270
v -0.001645 2.753946 -0.705193
vt 0.750000 0.875000
vt 0.687500 1.000000
vt 0.625000 0.875000
vt 0.687500 0.000000
vt 0.750000 0.125000
vt 0.625000 0.125000
vt 0.750000 0.250000
vt 0.750000 0.375000
vt 0.625000 0.375000
vt 0.625000 0.250000
vt 0.750000 0.500000
vt 0.750000 0.625000
vt 0.625000 0.625000
vt 0.625000 0.500000
vt 0.750000 0.750000
vt 0.625000 0.750000
vt 0.500000 0.625000
vt 0.500000 0.500000
vt 0.500000 0.875000
vt 0.500000 0.750000
vt 0.500000 0.250000
vt 0.500000 0.125000
vt 0.500000 0.375000
vt 0.562500 1.000000
vt 0.562500 0.000000
vt 0.375000 0.250000
vt 0.375000 0.125000
vt 0.375000 0.500000
vt 0.375000 0.375000
vt 0.375000 0.750000
vt 0.375000 0.625000
vt 0.437500 1.000000
vt 0.375000 0.875000
vt 0.437500 0.000000
vt 0.250000 0.750000
vt 0.250000 0.625000
vt 0.312500 1.000000
vt 0.250000 0.875000
vt 0.312500 0.000000
vt 0.250000 0.125000
vt 0.250000 0.375000
vt 0.250000 0.250000
vt 0.250000 0.500000
vt 0.187500 0.000000
vt 0.125000 0.125000
vt 0.125000 0.375000
vt 0.125000 0.250000
vt 0.125000 0.625000
vt 0.125000 0.500000
vt 0.125000 0.875000
vt 0.125000 0.750000
vt 0.187500 1.000000
vt 0.000000 0.875000
vt 0.000000 0.750000
vt 0.000000 0.250000
vt 0.000000 0.125000
vt 0.000000 0.500000
vt 0.000000 0.375000
vt 0.000000 0.625000
vt 0.062500 1.000000
vt 0.062500 0.000000
vt 1.000000 0.125000
vt 1.000000 0.250000
vt 0.875000 0.250000
vt 0.875000 0.125000
vt 1.000000 0.375000
vt 1.000000 0.500000
vt 0.875000 0.500000
vt 0.875000 0.375000
vt 1.000000 0.625000
vt 1.000000 0.750000
vt 0.875000 0.750000
vt 0.875000 0.625000
vt 1.000000 0.875000
vt 0.937500 1.000000
vt 0.875000 0.875000
vt 0.937500 0.000000
vt 0.812500 1.000000
vt 0.812500 0.000000
vt 0.250000 0.490000
vt 0.250000 0.250000
vt 0.419706 0.419706
vt 0.490000 0.250000
vt 0.419706 0.080294
vt 0.250000 0.010000
vt 0.080294 0.080294
vt 0.010000 0.250000
vt 0.750000 0.250000
vt 0.990000 0.250000
vt 0.919706 0.080294
vt 0.750000 0.010000
vt 0.080294 0.419706
vt 1.000000 0.500000
vt 1.000000 1.000000
vt 0.875000 1.000000
vt 0.875000 0.500000
vt 0.750000 1.000000
vt 0.750000 0.500000
vt 0.625000 1.000000
vt 0.625000 0.500000
vt 0.500000 1.000000
vt 0.500000 0.500000
vt 0.375000 1.000000
vt 0.375000 0.500000
vt 0.250000 1.000000
vt 0.250000 0.500000
vt 0.419706 0.419706
vt 0.250000 0.490000
vt 0.080294 0.419706
vt 0.010000 0.250000
vt 0.080294 0.080294
vt 0.250000 0.010000
vt 0.419706 0.080294
vt 0.490000 0.250000
vt 0.125000 1.000000
vt 0.125000 0.500000
vt 0.000000 1.000000
vt 0.000000 0.500000
vt 0.750000 0.490000
vt 0.919706 0.419706
vt 0.990000 0.250000
vt 0.919706 0.080294
vt 0.750000 0.010000
vt 0.580294 0.080294
vt 0.510000 0.250000
vt 0.580294 0.419706
vt 1.000000 0.500000
vt 1.000000 1.000000
vt 0.875000 1.000000
vt 0.875000 0.500000
vt 0.750000 1.000000
vt 0.750000 0.500000
vt 0.625000 1.000000
vt 0.625000 0.500000
vt 0.500000 1.000000
vt 0.500000 0.500000
vt 0.375000 1.000000
vt 0.375000 0.500000
vt 0.250000 1.000000
vt 0.250000 0.500000
vt 0.250000 0.250000
vt 0.010000 0.250000
vt 0.080294 0.080294
vt 0.250000 0.010000
vt 0.125000 1.000000
vt 0.125000 0.500000
vt 0.000000 1.000000
vt 0.000000 0.500000
vt 0.750000 0.490000
vt 0.919706 0.419706
vt 0.990000 0.250000
vt 0.919706 0.080294
vt 0.750000 0.010000
vt 0.580294 0.080294
vt 0.510000 0.250000
vt 0.580294 0.419706
vt 0.510000 0.250000
vt 0.580294 0.080294
vt 0.580294 0.419706
vt 0.750000 0.490000
vt 0.919706 0.419706
vt 0.250000 0.490000
vt 0.080294 0.419706
vt 0.490000 0.250000
vt 0.419706 0.080294
vt 0.419706 0.419706
vn 0.0805 0.9776 -0.1945
vn 0.0805 -0.9776 -0.1945
vn 0.3256 -0.5253 -0.7862
vn 0.3764 0.1807 -0.9087
vn 0.2243 0.8103 -0.5414
vn 0.2243 -0.8103 -0.5414
vn 0.3764 -0.1807 -0.9087
vn 0.3256 0.5253 -0.7862
vn 0.9087 0.1807 -0.3764
vn 0.5414 0.8103 -0.2243
vn 0.5414 -0.8103 -0.2243
vn 0.9087 -0.1807 -0.3764
vn 0.7862 0.5253 -0.3256
vn 0.1945 0.9776 -0.0805
vn 0.1945 -0.9776 -0.0805
vn 0.7862 -0.5253 -0.3256
vn 0.5414 -0.8103 0.2243
vn 0.9087 -0.1807 0.3764
vn 0.7862 0.5253 0.3256
vn 0.1945 0.9776 0.0805
vn 0.1945 -0.9776 0.0805
vn 0.7862 -0.5253 0.3256
vn 0.9087 0.1807 0.3764
vn 0.5414 0.8103 0.2243
vn 0.3256 0.5253 0.7862
vn 0.0805 0.9776 0.1945
vn 0.0805 -0.9776 0.1945
vn 0.3256 -0.5253 0.7862
vn 0.3764 0.1807 0.9087
vn 0.2243 0.8103 0.5414
vn 0.2243 -0.8103 0.5414
vn 0.3764 -0.1807 0.9087
vn -0.0805 -0.9776 0.1945
vn -0.3256 -0.5253 0.7862
vn -0.3764 0.1807 0.9087
vn -0.2243 0.8103 0.5414
vn -0.2243 -0.8103 0.5414
vn -0.3764 -0.1807 0.9087
vn -0.3256 0.5253 0.7862
vn -0.0805 0.9776 0.1945
vn -0.5414 0.8103 0.2243
vn -0.5414 -0.8103 0.2243
vn -0.9087 -0.1807 0.3764
vn -0.7862 0.5253 0.3256
vn -0.1945 0.9776 0.0805
vn -0.1945 -0.9776 0.0805
vn -0.7862 -0.5253 0.3256
vn -0.9087 0.1807 0.3764
vn -0.5414 -0.8103 -0.2243
vn -0.9087 -0.1807 -0.3764
vn -0.7862 0.5253 -0.3256
vn -0.1945 0.9776 -0.0805
vn -0.1945 -0.9776 -0.0805
vn -0.7862 -0.5253 -0.3256
vn -0.9087 0.1807 -0.3764
vn -0.5414 0.8103 -0.2243
vn -0.0805 0.9776 -0.1945
vn -0.0805 -0.9776 -0.1945
vn -0.3256 -0.5253 -0.7862
vn -0.3764 0.1807 -0.9087
vn -0.2243 0.8103 -0.5414
vn -0.2243 -0.8103 -0.5414
vn -0.3764 -0.1807 -0.9087
vn -0.3256 0.5253 -0.7862
vn 0.3474 0.4194 -0.8387
vn 0.8387 0.4194 -0.3474
vn 0.8387 0.4194 0.3474
vn 0.3474 0.4194 0.8387
vn -0.3474 0.4194 0.8387
vn -0.8387 0.4194 0.3474
vn 0.0000 -1.0000 -0.0000
vn -0.8387 0.4194 -0.3474
vn -0.3474 0.4194 -0.8387
vn 0.3827 0.0000 -0.9239
vn 0.9239 0.0000 -0.3827
vn 0.9239 0.0000 0.3827
vn 0.3827 0.0000 0.9239
vn -0.3827 0.0000 0.9239
vn -0.9239 0.0000 0.3827
vn 0.0000 1.0000 0.0000
vn -0.9239 0.0000 -0.3827
vn -0.3827 0.0000 -0.9239
vn 0.3738 -0.8481 -0.3755
vn 0.9024 -0.4274 -0.0555
vn 0.9024 0.1676 0.3971
vn 0.3738 0.5883 0.7171
vn -0.3738 0.5883 0.7171
vn -0.9024 0.1676 0.3971
vn 0.0000 0.6054 -0.7959
vn -0.9024 -0.4274 -0.0555
vn -0.3738 -0.8481 -0.3755
vn 0.0000 -0.6054 0.7959
s off
f 53/1/1 2/2/1 3/3/1
f 17/4/2 58/5/2 9/6/2
f 57/7/3 56/8/3 7/9/3 8/10/3
f 1/11/4 55/12/4 5/13/4 6/14/4
f 54/15/5 53/1/5 3/3/5 4/16/5
f 58/5/6 57/7/6 8/10/6 9/6/6
f 56/8/7 1/11/7 6/14/7 7/9/7
f 55/12/8 54/15/8 4/16/8 5/13/8
f 6/14/9 5/13/9 12/17/9 13/18/9
f 4/16/10 3/3/10 10/19/10 11/20/10
f 9/6/11 8/10/11 15/21/11 16/22/11
f 7/9/12 6/14/12 13/18/12 14/23/12
f 5/13/13 4/16/13 11/20/13 12/17/13
f 3/3/14 2/24/14 10/19/14
f 17/25/15 9/6/15 16/22/15
f 8/10/16 7/9/16 14/23/16 15/21/16
f 16/22/17 15/21/17 23/26/17 24/27/17
f 14/23/18 13/18/18 21/28/18 22/29/18
f 12/17/19 11/20/19 19/30/19 20/31/19
f 10/19/20 2/32/20 18/33/20
f 17/34/21 16/22/21 24/27/21
f 15/21/22 14/23/22 22/29/22 23/26/22
f 13/18/23 12/17/23 20/31/23 21/28/23
f 11/20/24 10/19/24 18/33/24 19/30/24
f 20/31/25 19/30/25 26/35/25 27/36/25
f 18/33/26 2/37/26 25/38/26
f 17/39/27 24/27/27 31/40/27
f 23/26/28 22/29/28 29/41/28 30/42/28
f 21/28/29 20/31/29 27/36/29 28/43/29
f 19/30/30 18/33/30 25/38/30 26/35/30
f 24/27/31 23/26/31 30/42/31 31/40/31
f 22/29/32 21/28/32 28/43/32 29/41/32
f 17/44/33 31/40/33 38/45/33
f 30/42/34 29/41/34 36/46/34 37/47/34
f 28/43/35 27/36/35 34/48/35 35/49/35
f 26/35/36 25/38/36 32/50/36 33/51/36
f 31/40/37 30/42/37 37/47/37 38/45/37
f 29/41/38 28/43/38 35/49/38 36/46/38
f 27/36/39 26/35/39 33/51/39 34/48/39
f 25/38/40 2/52/40 32/50/40
f 33/51/41 32/50/41 39/53/41 40/54/41
f 38/45/42 37/47/42 44/55/42 45/56/42
f 36/46/43 35/49/43 42/57/43 43/58/43
f 34/48/44 33/51/44 40/54/44 41/59/44
f 32/50/45 2/60/45 39/53/45
f 17/61/46 38/45/46 45/56/46
f 37/47/47 36/46/47 43/58/47 44/55/47
f 35/49/48 34/48/48 41/59/48 42/57/48
f 45/62/49 44/63/49 51/64/49 52/65/49
f 43/66/50 42/67/50 49/68/50 50/69/50
f 41/70/51 40/71/51 47/72/51 48/73/51
f 39/74/52 2/75/52 46/76/52
f 17/77/53 45/62/53 52/65/53
f 44/63/54 43/66/54 50/69/54 51/64/54
f 42/67/55 41/70/55 48/73/55 49/68/55
f 40/71/56 39/74/56 46/76/56 47/72/56
f 46/76/57 2/78/57 53/1/57
f 17/79/58 52/65/58 58/5/58
f 51/64/59 50/69/59 56/8/59 57/7/59
f 49/68/60 48/73/60 55/12/60 1/11/60
f 47/72/61 46/76/61 53/1/61 54/15/61
f 52/65/62 51/64/62 57/7/62 58/5/62
f 50/69/63 49/68/63 1/11/63 56/8/63
f 48/73/64 47/72/64 54/15/64 55/12/64
f 59/80/65 67/81/65 60/82/65
f 60/82/66 67/81/66 61/83/66
f 61/83/67 67/81/67 62/84/67
f 62/84/68 67/81/68 63/85/68
f 63/85/69 67/81/69 64/86/69
f 64/86/70 67/81/70 65/87/70
f 100/88/71 61/89/71 62/90/71 63/91/71
f 65/87/72 67/81/72 66/92/72
f 66/92/73 67/81/73 59/80/73
f 68/93/74 69/94/74 71/95/74 70/96/74
f 70/96/75 71/95/75 73/97/75 72/98/75
f 72/98/76 73/97/76 75/99/76 74/100/76
f 74/100/77 75/99/77 77/101/77 76/102/77
f 76/102/78 77/101/78 79/103/78 78/104/78
f 78/104/79 79/103/79 81/105/79 80/106/79
f 71/107/80 69/108/80 83/109/80 81/110/80 79/111/80 77/112/80 75/113/80 73/114/80
f 80/106/81 81/105/81 83/115/81 82/116/81
f 82/116/82 83/115/82 69/117/82 68/118/82
f 68/119/71 70/120/71 72/121/71 74/122/71 76/123/71 78/124/71 80/125/71 82/126/71
f 84/127/83 85/128/83 87/129/83 86/130/83
f 86/130/84 87/129/84 89/131/84 88/132/84
f 88/132/85 89/131/85 91/133/85 90/134/85
f 90/134/86 91/133/86 93/135/86 92/136/86
f 92/136/87 93/135/87 95/137/87 94/138/87
f 94/138/88 95/137/88 97/139/88 96/140/88
f 101/141/89 97/142/89 95/143/89 93/144/89
f 96/140/90 97/139/90 99/145/90 98/146/90
f 98/146/91 99/145/91 85/147/91 84/148/91
f 84/149/92 86/150/92 88/151/92 90/152/92 92/153/92 94/154/92 96/155/92 98/156/92
f 65/157/71 100/88/71 63/91/71 64/158/71
f 66/159/71 59/160/71 100/88/71 65/157/71
f 59/160/71 60/161/71 61/89/71 100/88/71
f 85/162/89 99/163/89 97/142/89 101/141/89
f 89/164/89 101/141/89 93/144/89 91/165/89
f 87/166/89 85/162/89 101/141/89 89/164/89
